<mxfile host="app.diagrams.net" modified="2023-09-26T00:51:10.724Z" agent="Mozilla/5.0 (Macintosh; Intel Mac OS X 10.15; rv:109.0) Gecko/20100101 Firefox/117.0" version="21.8.2" etag="AEeKVbVZhkTUY4lvNvv5" type="github">
  <diagram name="Page-1" id="HrIznyOnaAzN8qtz7LkG">
    <mxGraphModel>
      <root>
        <mxCell id="0" />
        <mxCell id="1" parent="0" />
      </root>
    </mxGraphModel>
  </diagram>
</mxfile>
